<svg xmlns="http://www.w3.org/2000/svg" viewBox="0 0 48 48"><defs><style>.cls-1{fill:#ffce52;}.cls-2{fill:#ffe369;}.cls-3{fill:#ffb32b;}.cls-4{fill:#f6fafd;}.cls-5{fill:#78b300;}.cls-6{fill:#273941;}.cls-7{fill:#4f813b;}.cls-8{fill:#426704;}.cls-9{fill:#ededed;}.cls-10{fill:#141e21;}</style></defs><title>30-money</title><g id="_30-money" data-name="30-money"><circle class="cls-1" cx="24" cy="24" r="23"/><path class="cls-2" d="M24,4c12.15,0,22,8.507,22,19h.975a23,23,0,0,0-45.95,0H2C2,12.507,11.85,4,24,4Z"/><path class="cls-3" d="M46,23c0,10.493-9.85,19-22,19S2,33.493,2,23H1.025c-.014.332-.025.665-.025,1a23,23,0,0,0,46,0c0-.335-.011-.668-.025-1Z"/><ellipse class="cls-4" cx="37" cy="9" rx="0.825" ry="1.148" transform="translate(4.48 28.81) rotate(-45.02)"/><ellipse class="cls-4" cx="30.746" cy="4.5" rx="0.413" ry="0.574" transform="translate(5.829 23.067) rotate(-45.02)"/><ellipse class="cls-4" cx="34" cy="7" rx="1.65" ry="2.297" transform="translate(5.015 26.102) rotate(-45.02)"/><path class="cls-5" d="M28,30H20a2.006,2.006,0,0,0-2,2v6a6.007,6.007,0,0,0,5.95,6H24a6,6,0,0,0,6-6V32A2.006,2.006,0,0,0,28,30Z"/><path class="cls-6" d="M40,25a12.6,12.6,0,0,1-2.99,8.24A16.288,16.288,0,0,1,30,38V32a2.006,2.006,0,0,0-2-2H20a2.006,2.006,0,0,0-2,2v6C12.66,36.08,8,31.57,8,25c.47,0,2.26.25,5.04.5S19.58,26,24,26A129.033,129.033,0,0,0,40,25Z"/><path class="cls-7" d="M33,15a1,1,0,1,1,1-1h2a3,3,0,0,0-2-2.816V10H32v1.184A2.993,2.993,0,0,0,33,17a1,1,0,1,1-1,1H30a3,3,0,0,0,2,2.816V22h2V20.816A2.993,2.993,0,0,0,33,15Z"/><path class="cls-7" d="M15,15a1,1,0,1,1,1-1h2a3,3,0,0,0-2-2.816V10H14v1.184A2.993,2.993,0,0,0,15,17a1,1,0,1,1-1,1H12a3,3,0,0,0,2,2.816V22h2V20.816A2.993,2.993,0,0,0,15,15Z"/><path class="cls-5" d="M33,15v2a1,1,0,0,1,0,2v3h1V20.816A2.993,2.993,0,0,0,33,15Z"/><path class="cls-5" d="M34,14h2a3,3,0,0,0-2-2.816V10H33v3A1,1,0,0,1,34,14Z"/><path class="cls-5" d="M16,18a1,1,0,0,1-1,1v3h1V20.816A2.993,2.993,0,0,0,15,15v2A1,1,0,0,1,16,18Z"/><path class="cls-5" d="M16,14h2a3,3,0,0,0-2-2.816V10H15v3A1,1,0,0,1,16,14Z"/><path class="cls-5" d="M28,30H20a2.006,2.006,0,0,0-2,2v6a6.007,6.007,0,0,0,5.95,6H24a6,6,0,0,0,6-6V32A2.006,2.006,0,0,0,28,30Z"/><path class="cls-8" d="M24,42h-.05A6.007,6.007,0,0,1,18,36v2a6.007,6.007,0,0,0,5.95,6H24a6,6,0,0,0,6-6V36A6,6,0,0,1,24,42Z"/><path class="cls-7" d="M28,30H20a2.006,2.006,0,0,0-2,2v2a2.006,2.006,0,0,1,2-2h8a2.006,2.006,0,0,1,2,2V32A2.006,2.006,0,0,0,28,30Z"/><path class="cls-9" d="M24,36a1,1,0,1,1,1-1h2a3,3,0,0,0-2-2.816V31H23v1.184A2.993,2.993,0,0,0,24,38a1,1,0,1,1-1,1H21a3,3,0,0,0,2,2.816V43h2V41.816A2.993,2.993,0,0,0,24,36Z"/><path class="cls-10" d="M24,28a130.231,130.231,0,0,0,15.836-.978A13.148,13.148,0,0,0,40,25a129.033,129.033,0,0,1-16,1c-4.42,0-8.18-.25-10.96-.5S8.47,25,8,25a13.23,13.23,0,0,0,.162,2.008c.634.037,2.335.263,4.878.492C15.82,27.75,19.58,28,24,28Z"/><path class="cls-10" d="M30,31h-.279A1.975,1.975,0,0,1,30,32v6a17.855,17.855,0,0,0,2-.858V33A2.006,2.006,0,0,0,30,31Z"/><path class="cls-10" d="M18,32a1.975,1.975,0,0,1,.279-1H18a2.006,2.006,0,0,0-2,2v4.14A18.056,18.056,0,0,0,18,38Z"/></g></svg>