<?xml version="1.0" encoding="UTF-8"?>
<svg width="700pt" height="700pt" version="1.1" viewBox="0 0 700 700" xmlns="http://www.w3.org/2000/svg" xmlns:xlink="http://www.w3.org/1999/xlink">
 <defs>
  <symbol id="f" overflow="visible">
   <path d="m39.078-2.3281c-2.0117 1.043-4.1094 1.8281-6.2969 2.3594s-4.4648 0.79688-6.8281 0.79688c-7.0859 0-12.699-1.9766-16.844-5.9375-4.1367-3.957-6.2031-9.3281-6.2031-16.109 0-6.7891 2.0664-12.164 6.2031-16.125 4.1445-3.9688 9.7578-5.9531 16.844-5.9531 2.3633 0 4.6406 0.26562 6.8281 0.79688s4.2852 1.3242 6.2969 2.375v8.7969c-2.0312-1.3828-4.0391-2.3984-6.0156-3.0469-1.9688-0.64453-4.0469-0.96875-6.2344-0.96875-3.9062 0-6.9844 1.2578-9.2344 3.7656-2.2422 2.5-3.3594 5.9531-3.3594 10.359 0 4.3867 1.1172 7.8359 3.3594 10.344 2.25 2.5 5.3281 3.75 9.2344 3.75 2.1875 0 4.2656-0.32031 6.2344-0.96875 1.9766-0.64453 3.9844-1.6602 6.0156-3.0469z"/>
  </symbol>
  <symbol id="e" overflow="visible">
   <path d="m16.031-40.953v9.0625h10.516v7.2812h-10.516v13.531c0 1.4805 0.28906 2.4805 0.875 3 0.59375 0.52344 1.7656 0.78125 3.5156 0.78125h5.2344v7.2969h-8.7344c-4.0312 0-6.8867-0.83594-8.5625-2.5156-1.6797-1.6875-2.5156-4.5391-2.5156-8.5625v-13.531h-5.0781v-7.2812h5.0781v-9.0625z"/>
  </symbol>
  <symbol id="d" overflow="visible">
   <path d="m26.594-27.234v-17.078h10.266v44.312h-10.266v-4.6094c-1.3984 1.875-2.9453 3.25-4.6406 4.125-1.6875 0.875-3.6406 1.3125-5.8594 1.3125-3.9297 0-7.1562-1.5625-9.6875-4.6875-2.5234-3.125-3.7812-7.1445-3.7812-12.062 0-4.9141 1.2578-8.9375 3.7812-12.062 2.5312-3.125 5.7578-4.6875 9.6875-4.6875 2.1953 0 4.1445 0.44531 5.8438 1.3281 1.707 0.88672 3.2578 2.2578 4.6562 4.1094zm-6.7188 20.656c2.1875 0 3.8516-0.79688 5-2.3906 1.1445-1.5938 1.7188-3.9102 1.7188-6.9531 0-3.0391-0.57422-5.3594-1.7188-6.9531-1.1484-1.5938-2.8125-2.3906-5-2.3906-2.168 0-3.8242 0.79688-4.9688 2.3906-1.1484 1.5938-1.7188 3.9141-1.7188 6.9531 0 3.043 0.57031 5.3594 1.7188 6.9531 1.1445 1.5938 2.8008 2.3906 4.9688 2.3906z"/>
  </symbol>
  <symbol id="c" overflow="visible">
   <path d="m21.875-6.5781c2.1758 0 3.8359-0.79688 4.9844-2.3906 1.1562-1.5938 1.7344-3.9102 1.7344-6.9531 0-3.0391-0.57812-5.3594-1.7344-6.9531-1.1484-1.5938-2.8086-2.3906-4.9844-2.3906-2.1875 0-3.8672 0.80469-5.0312 2.4062-1.168 1.6055-1.75 3.918-1.75 6.9375 0 3.0234 0.58203 5.3359 1.75 6.9375 1.1641 1.6055 2.8438 2.4062 5.0312 2.4062zm-6.7812-20.656c1.4062-1.8516 2.9609-3.2227 4.6719-4.1094 1.707-0.88281 3.6719-1.3281 5.8906-1.3281 3.9375 0 7.1641 1.5625 9.6875 4.6875 2.5195 3.125 3.7812 7.1484 3.7812 12.062 0 4.918-1.2617 8.9375-3.7812 12.062-2.5234 3.125-5.75 4.6875-9.6875 4.6875-2.2188 0-4.1836-0.44531-5.8906-1.3281-1.7109-0.88281-3.2656-2.2539-4.6719-4.1094v4.6094h-10.188v-44.312h10.188z"/>
  </symbol>
  <symbol id="b" overflow="visible">
   <path d="m24.781-35.344c-3.3438 0-5.9375 1.2344-7.7812 3.7031s-2.7656 5.9453-2.7656 10.422c0 4.4609 0.92188 7.9219 2.7656 10.391s4.4375 3.7031 7.7812 3.7031c3.3516 0 5.9531-1.2344 7.7969-3.7031s2.7656-5.9297 2.7656-10.391c0-4.4766-0.92188-7.9531-2.7656-10.422s-4.4453-3.7031-7.7969-3.7031zm0-7.9531c6.832 0 12.188 1.9609 16.062 5.875 3.875 3.9062 5.8125 9.3086 5.8125 16.203 0 6.875-1.9375 12.273-5.8125 16.188-3.875 3.9062-9.2305 5.8594-16.062 5.8594-6.8242 0-12.18-1.9531-16.062-5.8594-3.875-3.9141-5.8125-9.3125-5.8125-16.188 0-6.8945 1.9375-12.297 5.8125-16.203 3.8828-3.9141 9.2383-5.875 16.062-5.875z"/>
  </symbol>
  <symbol id="a" overflow="visible">
   <path d="m5.3594-42.516h10.953v15.516l15.812-15.516h12.734l-20.484 20.125 22.594 22.391h-13.734l-16.922-16.75v16.75h-10.953z"/>
  </symbol>
 </defs>
 <g>
  <path d="m350 87.5c-35.438 0-64.168 28.727-64.168 64.168 0 35.438 28.73 64.164 64.168 64.164s64.168-28.727 64.168-64.164c0-35.441-28.73-64.168-64.168-64.168zm-99.168 64.168c0-54.77 44.398-99.168 99.168-99.168s99.168 44.398 99.168 99.168c0 54.766-44.398 99.164-99.168 99.164s-99.168-44.398-99.168-99.164z" fill-rule="evenodd"/>
  <path d="m122.5 466.67c0-86.984 70.516-157.5 157.5-157.5h140c86.984 0 157.5 70.516 157.5 157.5 0 22.551-18.281 40.832-40.832 40.832h-373.34c-22.551 0-40.832-18.281-40.832-40.832zm157.5-122.5c-67.656 0-122.5 54.844-122.5 122.5 0 3.2188 2.6133 5.832 5.832 5.832h373.34c3.2188 0 5.832-2.6133 5.832-5.832 0-67.656-54.844-122.5-122.5-122.5z" fill-rule="evenodd"/>
  <use x="70" y="735" xlink:href="#f"/>
  <use x="220.503906" y="735" xlink:href="#e"/>
  <use x="287.953125" y="735" xlink:href="#d"/>
  <use x="350.015625" y="735" xlink:href="#c"/>
  <use x="450.105469" y="735" xlink:href="#b"/>
  <use x="694.234375" y="735" xlink:href="#a"/>
 </g>
</svg>
